<svg width="18" height="18" viewBox="0 0 18 18" fill="none" xmlns="http://www.w3.org/2000/svg">
<path d="M13.2629 11.7986C13.0374 12.0537 12.8006 12.3056 12.5531 12.5531C8.97329 16.1329 4.48837 17.452 2.53575 15.4994C1.19708 14.1607 1.39616 11.6318 2.80722 9.02036M4.74155 6.27121C4.97631 6.00428 5.22326 5.74079 5.48203 5.48203C9.06183 1.90222 13.5468 0.583128 15.4994 2.53575C16.839 3.87534 16.6387 6.40679 15.225 9.02016M12.5531 5.48203C16.1329 9.06183 17.452 13.5468 15.4994 15.4994C13.5468 17.452 9.06183 16.1329 5.48203 12.5531C1.90222 8.97329 0.583128 4.48837 2.53575 2.53575C4.48837 0.583128 8.97329 1.90222 12.5531 5.48203ZM9.83355 9.00016C9.83355 9.46039 9.46045 9.83349 9.00022 9.83349C8.53998 9.83349 8.16688 9.46039 8.16688 9.00016C8.16688 8.53992 8.53998 8.16682 9.00022 8.16682C9.46045 8.16682 9.83355 8.53992 9.83355 9.00016Z" stroke="white" stroke-width="1.5" stroke-linecap="round" stroke-linejoin="round"/>
</svg>